
<svg height="430.6294" width="430.6294"  data-name="Layer 2" xmlns="http://www.w3.org/2000/svg" viewBox="0 0 430.6294 430.6294">
    <g id="c" data-name="图层 1">
      <g>
        <path d="m215.3088,0C96.398,0,0,96.398,0,215.3089s96.398,215.3205,215.3088,215.3205,215.3206-96.4097,215.3206-215.3205S334.2314,0,215.3088,0Z" fill="#115740" stroke-width="0"/>
        <circle cx="215.3088" cy="215.3205" r="142.9431" transform="translate(-89.1921 215.3123) rotate(-45)" fill="#fff" stroke-width="0"/>
        <g>
          <path d="m177.8522,337.0809v-7.7851l.0741-3.8542-.3415-.2674-5.7601,1.0408v1.2992l.3163-.0338c.5609-.047,2.0961-.146,2.5236.1344.4811.3155.5679,1.2623.5775,1.3908v8.0752c0,1.44-.0251,2.6893-.049,4.1558l-3.7475.0102-.0113,1.4962h10.1027l.0114-1.5076-3.6471.0012c-.0238-1.4903-.049-2.7157-.049-4.1558Z" fill="#115740" stroke-width="0"/>
          <path d="m204.3275,333.5806c-.1147-.1145-.3056-.2674-.3438-.4201-.0382-.2674.3438-.573.3818-.611,1.7952-1.146,2.4444-2.4444,2.4444-3.6666,0-2.2917-1.7567-4.0485-4.8506-4.0485-2.9025,0-5.1942,1.7567-5.1942,4.545,0,1.7567.8404,3.2463,2.75,4.4303.1145.0765.2674.2292.2292.3821-.0382.1527-.2674.3436-.3056.3818-2.1006,1.0313-3.2083,2.3297-3.2083,4.1632,0,2.6354,2.1008,4.1629,5.5381,4.1629,3.4757,0,5.8055-1.8714,5.8055-4.6212,0-2.0626-1.0313-3.4375-3.2463-4.6979Zm-5.2707-4.9651c0-1.7187,1.3367-2.788,2.8645-2.788,1.7185,0,2.6733,1.3749,2.6733,3.1699,0,1.4896-.4963,2.5974-1.9097,3.7813-2.9025-1.3751-3.6282-2.7118-3.6282-4.1632Zm2.8645,13.3677c-2.0244,0-3.3228-1.3749-3.3228-3.5902,0-1.757.7637-2.788,2.3297-3.8576,3.1701,1.4896,4.1249,2.6354,4.1249,4.2394,0,1.9097-1.1842,3.2083-3.1319,3.2083Z" fill="#115740" stroke-width="0"/>
          <path d="m227.6636,324.8344c-3.2846,0-5.8055,2.1388-5.8437,5.5761,0,3.323,2.2917,5.2707,5.2707,5.2707.8786,0,1.6423-.1527,2.3297-.4583.1147-.0382.4203-.1145.6112,0,.2292.1529.1909.6112.1527.8786l-.0382.1527c-.9548,2.788-3.0937,4.7359-6.913,6.0346l.1529.7639c6.7983-1.5278,10.1211-5.8437,10.1211-11.0762,0-4.3923-2.1771-7.1421-5.8435-7.1421Zm3.0937,8.0205s0,.1909-.1147.4201c-.0762.2294-.3054.4203-.4201.5348-.6492.3821-1.3367.573-2.1771.573-2.0624,0-3.552-1.4131-3.552-4.3159,0-2.8263,1.4514-4.2394,3.1319-4.2394,1.8714,0,3.1701,1.795,3.1701,6.2255,0,.2671-.0382.5345-.0382.8019Z" fill="#115740" stroke-width="0"/>
          <path d="m254.7086,333.4231c2.659-.7068,3.9534-2.3189,3.9534-4.3439,0-2.4883-1.9046-4.246-5.1989-4.246-2.5624,0-5.6535,1.7808-5.1486,3.6133.2435.6327.7319.8524,1.2693.8524.8299,0,1.2931-.4394,1.5366-1.5618l.175-.6712v.0023s.2884-.5163.6698-.8062c.4974-.378,1.2825-.39,1.4693-.3872,1.6624.2263,2.6161,1.3831,2.6161,3.2784,0,2.4645-1.5128,3.7827-3.8555,3.7827h-1.0006v1.0721h1.1952c2.7093,0,4.1004,1.4162,4.1004,3.9548,0,2.3842-1.2271,3.7993-3.5605,3.9626l.0387-.0057s-.7191.0113-1.2982-.2157c-.4621-.1812-.8203-.8678-.8776-.9827l-.1843-.7572c-.3163-1.3183-.6753-2.0297-1.561-2.0638-.6097-.0234-1.2717.2498-1.2701,1.1373.2028,2.8141,2.3678,3.878,5.2955,3.878,3.7099,0,6.1254-2.123,6.1254-5.0507,0-2.2686-1.3421-3.9283-4.4895-4.4419Z" fill="#115740" stroke-width="0"/>
        </g>
        <g>
          <g>
            <path d="m300.4247,352.4399c-.9926-.5449-2.1691-.9893-2.5439-.7112s-.5485.2628-.9451.8988c-.3967.6361-.993,2.1007-1.6477,1.255-.6547-.8457-1.195-2.2163-1.738-2.5658s-1.2975-.3968-1.8973-.3233-1.1545-.034-1.1815.3819.2665,2.0467.5934,2.9704c.3269.9237.7803,1.9559.3834,2.485s-2.4246.6902-2.6781,1.0277-.808.9985-.2492,1.3883c.5589.3898,1.5654.8873,1.5806,1.375s-.3642,1.6991-.0032,2.2368c.361.5377,1.3797,1.0071,1.8897.0795s1.3769-.8315,1.2788-.0523-.0403,1.4457-1.0311,2.3113c-.9908.8656-2.6004,1.2486-1.5303,1.9073,1.0701.6587,1.9006.9461,1.9955,1.7424s-.0059,1.1667-.2157,1.4496-.2564.5901.351.7605.9631-.0024,1.3592-.1911.9533-.441,1.1283.1095.2883.9203.1818,1.1346c-.0438.0881-.9086.6744-1.4131,1.7912-.7014,1.5526-1.6941,3.7603-3.0975,5.2217-2.3403,2.437-2.4684,2.8359-3.2098,3.0816-.5989.1984-.719.1018-.8871.2426s-.2669.5989-.1296.8056.7553,1.7981,2.1622,1.7279c1.4068-.0702,2.9355-.5284,3.7921-1.7463.8566-1.2179,5.2553-13.0165,5.8884-13.797.6331-.7805,1.7592-.8658,1.8514-.4783.0922.3875.2226,1.3328-.4429,2.48s-1.3779,1.8332-1.3913,2.0947.4903,1.0549.7712,1.8384c.2588.7219.1483,1.0733.5618,1.567.4135.4937.8812.9241.9008,1.0328s-.5032,1.5118-1.4863,3.3896-1.2366,2.2153-1.7127,2.6499-1.0456.7149-1.0133,1.0095.4654.8971,1.1813.9409,1.2876-.0418,1.6235-.4304.7326-1.686,1.4698-2.9826.9041-1.8654,1.144-2.0484,1.2297-.0469,1.6281.7275c.3984.7744.5601,1.5863-.0288,2.5264-.5889.9401-1.6804,1.5147-1.729,1.7341s.2011,1.1363,1.6607,1.1292,1.9655-.4488,2.577-.7643,1.3592-.1911,1.7967-.629.8564-1.9863.1564-3.4197c-.7001-1.4333-1.0911-2.0709-1.6349-2.7415s-1.8246-2.1358-1.039-2.9904c.7856-.8546,1.0973-1.0799,1.4601-1.2229s1.2026-1.0609.9484-1.7059-1.068-1.2324-1.4813-.9577-.8277,1.5512-1.3947,2.1333c-.567.5821-1.386,1.3754-2.17.7808s-1.4384-1.3332-1.5269-1.6523.6758-1.2631,1.225-2.6346c.5492-1.3715,1.531-4.4459.9939-5.9621-.5371-1.5162-1.2726-1.6687-1.6354-1.5257s-1.918,1.2311-2.4512.5517-.4931-1.4637.1523-2.9337c.6455-1.47.8392-2.5617.8416-3.0284s-.0444-.928.4632-1.3889,1.6432-.983,1.2513-1.9417c-.3919-.9587-.7145-1.6-1.7071-2.1449Zm-3.579,9.1281c-.1568.453-.4024,1.1413-.9599,1.2866s-.8737-.0189-.9446-.3169c-.0754-.3168.0791-1.3353.8814-1.8285.609-.3744,1.1799.4058,1.0232.8588Zm1.508-4.516c-.073.2756-.2195.6128-.6419.77s-.6824.0175-.7562-.0279-.2268-.1854.0163-.5141.6791-.6403.8965-.6794.5583.1758.4853.4514Z" fill="#fff" stroke-width="0"/>
            <path d="m285.7325,375.9341c-.0504-.0664.0009-.3403.2513-.5322s.7139-1.4737-.238-2.5889c-.9519-1.1152-2.2634-2.2329-2.3642-2.5239s-.1438-.6838.5815-1.0769,1.1631-.7239,1.0442-1.25-.3419-.643-.1585-.9575.5596-.7189,1.9397-.2662c1.3801.4527,2.2545,1.454,2.4798,1.7657s.4983.7444.1746,1.7662-1.0895,2.0922-.9812,2.627.5372.8548.5695,1.1494.0752,2.0103-.3831,2.5729c-.4582.5625-1.3549.4735-1.9436.0908s-.7978-.5471-.9721-.7765Z" fill="#fff" stroke-width="0"/>
          </g>
          <g>
            <path d="m152.3126,357.3801c.678-1.1806.8767-1.3675.6078-2.0222-.2688-.6896-1.1107-1.6014-1.6831-2.1741-.573-.5727-1.1107-.7247-1.6831-.8767-.573-.1169-.7248.3039-.7597.4559-.0354.1869-.1872,1.4845-.9121,3.7053-.6895,2.2094-3.3314,8.0187-3.8223,8.9305-.456.9233-.6546.9584-1.0753,1.2272-.3738.2339-8.1702-.1871-12.1449-.3857-3.9741-.152-5.0026-.3741-6.4523-.7598-1.4845-.4208-1.5313-.5727-1.9051-.6896-.3504-.0702-.6546.6545-.6546.6545,0,0,.0822.269.3042.8417.2688.5259,1.2973,1.4494,1.5661,1.9753.3042.5376.7248,1.3091.9235,1.4143.1866.117.8767-.3039,2.408-.4908,1.5193-.1871,3.5883-.117,4.3479.1169.7602.2222.807.4559.7602.6896-.0702.222-.3042.3039-1.3681,1.7533-1.0753,1.4494-1.2973,3.2495-1.2619,3.6237.0348.3855.6427.5376.7597.5727.0816.0467.5376,0,1.4491-.2222.8887-.269,2.186-1.3793,2.6066-1.5663.3744-.2339,1.2973-.0468,1.5667,0,.2568.0351.6073.1869.5725.4206,0,.2573-.6546,1.7884-1.3795,2.63-.7597.8417-3.3663,1.1456-9.1285,1.7533-5.728.6195-9.3163-1.0636-9.7021-1.2155-.4206-.152-.456-.4559-.4908-.5027-.0816-.0351-.3156.0819-.5028.2339-.1518.1169-.5376.7247-.1866,1.9521.3738,1.1806,1.1803,2.0222,1.8349,2.3261.6427.3039,5.8444.7246,9.3163.4908,3.4365-.2571,10.9172-2.63,11.3847-2.7118.456-.1052.9121-.1052,1.0285-.0351.0702.0818.5376,2.1039.6432,3.9742.117,1.9053-.0354,6.3353,0,6.5691.0468.2339.6895.4559.8413.5376.1992.0701.5028.1169.9589-.0818.4206-.152,1.4143-.9118,1.6831-1.1455.2688-.2222.5725-.5376.6895-.7949.1518-.2688.7248-1.765,1.9051-4.2782,1.2157-2.5598,2.7122-4.8508,2.7824-5.1196.117-.269-.0702-.4209-.2574-1.0405-.1986-.6078-.1986-.9467-.3156-1.2506-.105-.3506-.339.0351-.3738.0701,0,.0819,0,.0351-.5376,1.2274-.5376,1.1806-1.9873,3.5067-2.3732,3.9276-.339.4206-1.0285.6895-1.2157.2688-.1866-.3741-.3036-2.2911-.1164-4.395.1866-2.0924,1.4839-6.0666,1.9051-7.0601.4206-1.0286,1.1101-.6897,1.4959-.6546.4206,0,1.9057.117,2.408-.1052.456-.2339.7248-.4208.795-1.3091.117-.8767-.8418-.8767-1.1809-.8767-.339.0468-1.3789-.222-1.5313-.678-.1866-.4206-.105-.5727,1.3441-3.4014,1.4497-2.8286,3.4016-5.3068,4.1265-6.4991Zm-14.2955,13.1032c-.0816.6546-1.0171,1.9639-1.4491,2.1275-.3162.1287-.6312.1403-1.6951-.6896-1.0519-.83-1.3327-2.1273-1.0987-2.3261.2334-.1988.5844-.3857,1.4377-.3507.9001.0351,1.6945.1754,2.2556.4091.5496.2222.6078.3156.5496.8299Zm3.3195,1.6833c-.4908,1.1923-.9469,1.9872-1.2157,2.1975-.2688.1988-.6078-.4908-.7014-1.0402-.0816-.5028-.2568-.9352.024-1.9054.2922-.9701.7363-1.5546,1.1101-1.7416.3738-.1986.9703-.0234,1.1107.2454.1398.2688.1638,1.0522-.3276,2.2443Z" fill="#fff" stroke-width="0"/>
            <path d="m121.9443,374.3409c.1527-.3818.8784-.3054,1.2222-.3436.3436,0,1.222-.2292,2.0241-.7257.8404-.4583,1.1458-1.2604,1.4131-1.1078.2292.1529.3056,1.6043.2674,3.0174,0,1.3749-1.3749,1.2222-1.7187,1.2602-.3818,0-3.1699.0382-3.5137-.2292-.3438-.3054.1909-1.4894.3056-1.8714Z" fill="#fff" stroke-width="0"/>
            <path d="m134.6246,360.324c.038-.1909.1909-.2292.3054-.2674.1147-.0382.4965.3056,1.6423.573,1.1078.2674,3.1701.3054,3.9723.1909.8019-.1527,1.8714-.2292,2.7116.2674.8404.5348.4203,2.4444.1529,2.979-.2674.5348-1.0313.4203-2.1771.4583-1.1075.0382-2.788.2674-3.3228.2674-.5348-.0382-1.5278-.5728-2.4444-1.795-.9166-1.2222-.9166-2.5209-.8401-2.6736Z" fill="#fff" stroke-width="0"/>
            <path d="m157.0441,367.81c-.8404,2.368-3.4757,2.0624-4.0867,2.0241-.6495-.0382-.8404-.3056-.8404-.3818,0-.0765,1.1458-1.9097,1.6423-3.1319.4965-1.2604.2674-3.4757.2674-3.4757,0,0,.9166.3438,1.5661.7639.611.4583,2.2915,1.8334,1.4514,4.2014Z" fill="#fff" stroke-width="0"/>
          </g>
          <g>
            <path d="m186.4528,388.1669c-.8019.8404-1.222,2.6354-2.2533,5.8055-1.0695,3.2083-1.757,7.3331-2.1388,8.9374-.3821,1.6041-.8404,2.788-2.1388,2.5971-1.2604-.1912-2.4062-2.368-2.5589-3.0937-.1529-.7257.2671-1.2987.7255-1.9097.4203-.6112,1.2222-2.8265,1.8334-4.6979.5728-1.8332.5728-4.9651,1.1075-6.2255.2292-.5345,1.1078-2.2533,1.3369-3.8193.2292-1.6041.4583-3.399.7257-3.7046.1909-.1909.4201-.3056.6492-.3056.2674,0,.6492.1909,1.1458.8404.5348.6492.7639,1.2984,1.0313,1.9097.2674.6492.4583,1.0693.9166,1.1075.4583.0765.7639-.3438.8019-.3438.0765,0,.3438.1912.3438.7639,0,.6112-.6875,1.2604-1.5278,2.1388Z" fill="#fff" stroke-width="0"/>
            <path d="m184.1613,370.025c.1527-.3054.573-.9548.9548-.8784.4201.1147.9931,1.5278,1.4514,2.8263.5348,1.4514.6875,2.9792.2292,3.934-.4201.9548-1.4514,1.6805-1.9861,2.5207-.5345.8784-.5728,1.2987-.9931,1.5278-.3818.2674-.6492.3818-.7637.1909-.1147-.1527.0382-3.1701.2292-4.2394.2674-1.2604.8019-1.9097.8019-3.2466s-.038-2.3297.0765-2.6354Z" fill="#fff" stroke-width="0"/>
            <path d="m202.7232,404.2846c-.5345.0762-2.1771-.8786-2.6736-1.0313-.4963-.1145-.8019-.2292-.7255-.4201.038-.1527.2671-.4583.7255-.8021.4585-.3436.9548-.9166,1.0313-1.3749.1147-.4201-.6875-1.7187-.7639-2.1771-.038-.4583.1529-1.184.1912-1.2604.038-.1145.1145-.1909.4963-.1527.3821,0,.7639.3056,1.4514.9166.7257.6492,1.0313,2.0244,1.5661,2.941s.7257.8021.6875,1.4896c-.0765.6492-1.4514,1.795-1.9861,1.8714Z" fill="#fff" stroke-width="0"/>
            <path d="m206.3502,373.3121c.9583-1.1456,1.1455-2.069,1.0285-2.7119-.105-.6546-.5725-1.2274-1.2505-1.6482-.7363-.4208-1.6129.269-1.6483.5027-.1164.339,0,.5727-.2334,1.7533-.222,1.2274-.678,1.7533-1.7533,2.139-1.1107.4208-1.7887-1.6014-2.1043-1.9053-.2568-.3039-.4206.3741-.4555.9118-.0702.5727.1164,2.8988-.3042,3.0158-.3858.1167-1.2271-1.5664-1.7185-1.9405-.1866-.1167-.4908.0351-.8065.3741-.3036.3507-.3036.9586-.4206,1.917-.0702.9467-.1518,1.2155-1.2157,2.2443-1.0285,1.0402-5.2714,2.069-5.4586,2.139-.0816.0467-.1518.1169-.1518.1988,0,.1167.0702.4206.5725.9934.4914.5729,1.3327.9937,1.9405,1.0988.6546.1169,1.0753.1988,1.3441.8417.2574.6895.0354,2.4896-.0468,3.3312-.0702.8767-.8413,1.6366-1.9051,2.3963-1.0753.7715-1.4965,1.765-1.4965,2.4897-.0348.7598,1.7305,1.5663,2.6072,1.4144.8413-.1521,1.7533-.9235,1.9868-1.1105.222-.2339.573-.3039.7248-.1871.1518.1053.5725.6429.6427,1.4845.0354.8416-1.2973,1.7182-1.8703,1.987-.5725.269-1.1803.117-1.5307.0351-.339-.0351-.4212.117-.4908.2688-.0354.1521.1518.6078.4908.8767.3156.3039,1.6477.117,1.8349.2688.1518.117.5028.5729.4206,1.4962-.0348.9118-1.8349,2.2443-2.4428,3.0509-.6427.7597.456.8065,1.0753.5727.6427-.2688,2.0924-1.1455,3.1328-2.256,1.0633-1.0637,1.7533-3.4015,1.7533-3.4015,0,0,.9937.1521,2.1038.0819,1.0639-.117,2.0924-.6546,3.2846-1.4845,1.2157-.8884,2.0924-1.8001,2.2094-2.1392.117-.3155-.1872-.7714-1.1107-1.1455-.8767-.3857-1.9868-.5025-2.63-.5025-.6895-.0351-.5725.8767-.6895,1.4143-.0816.491-.573,1.0637-1.6363,1.4143-1.0753.339-.7363-.8416-.4212-1.2272.3744-.491,1.0291-1.1455,2.2442-2.63,1.1929-1.5312,1.1107-2.3729.807-2.9806-.3042-.6078-.6078-1.8352-.3858-2.1392.234-.339.4206-.2688,1.5661-.9935s1.1455-1.2274.7248-2.2911c-.3744-1.0753-2.5598-1.2973-2.9804-1.7533-.3744-.4674-.1524-1.4611.3151-2.4078.456-.9935,3.3548-2.7469,4.3485-3.8572Zm-11.3618,7.8315c.2454-.3156.6666-.5027,1.3681-.5142.7014-.0234,1.1923.0816,1.3909.6545.21.5727-.0702.8882-1.1455.9584-1.0759.0702-1.8589-.7831-1.6135-1.0987Zm.5376,8.6847c-1.0165-.0117-1.0399-.339-1.0981-.5259-.0588-.1754.1752-.7481.7477-.9352.573-.1869,1.0519-.0585,1.2739.0702.2226.1169.8184.6546.8184.6546,0,0-.7248.748-1.7419.7363Zm2.537-3.0623c-.3624.2337-1.1689.4206-1.5781.1284-.4092-.2805-.3036-.6195-.3036-.6195.105-.561,1.1335-1.0753,1.7065-.6895.5725.3855.5257.935.1752,1.1806Z" fill="#fff" stroke-width="0"/>
          </g>
          <path d="m256.4214,392.6834c-1.5502.3355-2.5141-.3772-2.5976-.7961-.0839-.4609-.2515-.9635-.6707-1.2569-.4609-.3352-1.8435-.4191-2.4302-.4611-.5863-.0417-.6702.5867-.8378,1.0896-.1259.5026-2.2628,4.1063-3.017,4.9861-.7541.922-2.095.88-2.7232.1676-.6287-.6704-.2098-1.5922,1.2569-3.2263,1.5082-1.6341,2.5978-3.9804,2.5978-4.4832s-.2096-1.215-.3355-1.2569c-.1254-.0839-.3352,0-.7122.2093-.4191.1676-1.4665,1.0476-1.8854,1.5504-.4609.5026-1.0057.9217-1.4246,1.0893-.4611.1676-.922.1256-1.2152-.1259-.2933-.2093-.7541-.6702-1.0057-1.0474-.2513-.4189-.1674-.8798.2515-1.5502.3772-.6285,1.3409-.5865,1.5082-.5865.2096.0417.7124-.042,1.9276-.5448,1.173-.4611,1.5502-.7124,1.8015-.9637.2096-.2096.5867-.7544.88-1.7598.2933-.9637-.1678-2.8911-.5028-3.8128-.2933-.88-1.0474-1.4668-1.2152-1.6761-.1674-.1676-.0837-.3772-.0837-.9637,0-.5446-.1256-1.0054-.1676-1.3409-.042-.3352.5028-.6285.7961-.6704.2933-.0417,1.0893.4191,1.3409.6287.2513.1674.5865.0417.922-.042.335-.042.6282.1256,1.2569.5026.6282.3774.7122.7126.7122,1.0896-.042.3772-.7961,1.8854-.7541,2.2624.0837.4191.5865,1.8857.7961,1.9276.2513.042.2933-.4609.5865-.7541.2515-.3355,1.1313-.5867,2.053-.3774.9217.2515,1.2569.838,1.2569,1.2155.042.3769-.2513.9215-1.6341,2.095-1.3826,1.215-2.0111,1.7176-2.3043,2.5139-.2935.7961,0,1.2569.5865,1.6761.6285.3769,2.5139-.042,3.2683-.2096.7961-.2096,1.8854.2096,2.8491.9637s1.1313,2.137,1.0893,2.5559c0,.3772-.6702,1.0054-2.2206,1.3826Z" fill="#fff" stroke-width="0"/>
        </g>
        <path d="m366.2121,295.5393v-60.0808c15.628-7.5978,17.1475-37.6966,18.1879-41.063-1.3793.8416-12.5655,12.9513-26.5103,13.1032H72.728c-13.9448-.152-25.1311-12.2616-26.5103-13.1032,1.0403,3.3664,2.5599,33.4652,18.1879,41.063v60.0808h-21.5776l27.2233,27.3052h290.5151l27.2233-27.3052h-21.5776Z" fill="#fff" stroke-width="0"/>
        <path d="m215.3144,421.4998c-113.6913,0-206.1852-92.4938-206.1852-206.1852S101.6231,9.1289,215.3144,9.1289s206.1863,92.4944,206.1863,206.1857-92.495,206.1852-206.1863,206.1852Zm0-406.5265C104.8467,14.9734,14.9737,104.8463,14.9737,215.3147s89.873,200.3407,200.3407,200.3407,200.3419-89.873,200.3419-200.3407S325.7833,14.9734,215.3144,14.9734Z" fill="#fff" stroke-width="0"/>
        <g>
          <path d="m310.525,201.5824c1.4539-1.7006,2.9077-3.5384,4.2518-5.3487H115.8555c1.3441,1.8103,2.7979,3.6481,4.279,5.3487h190.3905Z" fill="#002554" stroke-width="0"/>
          <path d="m210.7004,117.1801h1.423c-1.2515,2.0912-2.7955,9.7143.1113,16.1097h.004c-.3483.0002-.6331.2852-.6331.6335h0c0,.3485.285.6336.6335.6336h.9392l.0018.0036h4.5157l.0019-.0036h.6956c.3484,0,.6336-.285.6336-.6335h0c0-.3483-.285-.6334-.6332-.6336h.0041c2.9068-6.3954,1.3626-14.0184.1113-16.1097h1.4229c.448,0,.8145-.3666.8145-.8146s-.3664-.8145-.8145-.8145h-.0906v-.181c0-1.1877-.8292-2.1887-1.9366-2.4594.3545-.3249.5791-.7897.5791-1.3055v-.2445l.0004-.3415c.3057-.0445.5426-.3093.5426-.6269,0-.3484-.2851-.6336-.6336-.6336h-.6335v-.1121c0-.7237-.5693-1.3207-1.2821-1.3656h-2.323c-.7129.0449-1.2821.6419-1.2821,1.3656v.1121h-.6336c-.3484,0-.6335.2851-.6335.6336,0,.3147.2325.5776.5341.6257l.0089.316v.2711c0,.5158.2244.9805.579,1.3055-1.1074.2708-1.9366,1.2717-1.9366,2.4594v.181h-.0906c-.4479,0-.8145.3665-.8145.8145s.3665.8146.8145.8146Z" fill="#002554" stroke-width="0"/>
          <g>
            <rect x="208.6216" y="180.8056" width="13.4424" height="4.7796" fill="#002554" stroke-width="0"/>
            <g>
              <g>
                <polygon points="169.9902 182.1057 169.9902 187.3764 159.9453 192.2653 159.9453 186.9564 169.9902 182.1057" fill="#002554" stroke-width="0"/>
                <polygon points="260.6421 182.1057 260.6421 187.3764 270.687 192.2653 270.687 186.9564 260.6421 182.1057" fill="#002554" stroke-width="0"/>
              </g>
              <g>
                <rect x="225.8221" y="180.8056" width="13.4425" height="4.7796" fill="#002554" stroke-width="0"/>
                <rect x="243.0494" y="180.8056" width="13.4424" height="4.7796" fill="#002554" stroke-width="0"/>
                <rect x="174.1405" y="180.8056" width="13.4425" height="4.7796" fill="#002554" stroke-width="0"/>
                <rect x="191.3678" y="180.8056" width="13.4424" height="4.7796" fill="#002554" stroke-width="0"/>
              </g>
            </g>
          </g>
          <g>
            <polygon points="72.5096 317.3941 358.1226 317.3941 364.9634 310.5447 65.6689 310.5447 72.5096 317.3941" fill="#002554" stroke-width="0"/>
            <polygon points="63.7876 308.6989 366.845 308.6989 373.6583 301.877 56.974 301.877 63.7876 308.6989" fill="#002554" stroke-width="0"/>
            <polygon points="146.9918 291.4493 283.6405 291.4493 282.5672 288.2401 148.0648 288.2401 146.9918 291.4493" fill="#002554" stroke-width="0"/>
            <polygon points="144.9909 297.4739 285.6415 297.4739 284.5685 294.2645 146.0639 294.2645 144.9909 297.4739" fill="#002554" stroke-width="0"/>
            <polygon points="150.095 282.2156 148.993 285.425 281.6394 285.425 280.5373 282.2156 150.095 282.2156" fill="#002554" stroke-width="0"/>
          </g>
          <g>
            <path d="m146.6932,208.7142v-3.0722h-7.2965v5.1294c2.7157-.3566,5.1568-1.0973,7.2965-2.0572Z" fill="#002554" stroke-width="0"/>
            <path d="m128.7267,209.3451c1.6732,1.0698,3.6481,1.5361,5.8698,1.6459v-5.3489h-7.2688v2.743c.4663.3566.9326.6583,1.399.96Z" fill="#002554" stroke-width="0"/>
            <path d="m302.0704,209.3451c.4115-.2468.8227-.5487,1.2342-.8503v-2.8527h-7.269v5.3489c2.2769-.0824,4.3067-.5486,6.0347-1.6459Z" fill="#002554" stroke-width="0"/>
            <path d="m291.2354,210.744v-5.1019h-7.2686v3.0172c2.1122.9602,4.5532,1.7281,7.2686,2.0847Z" fill="#002554" stroke-width="0"/>
          </g>
          <path d="m71.1209,228.9556h288.3908c8.8099-.0003,14.1676-16.9954,14.1676-16.9954,0,0-13.8964,8.3639-24.5406,1.6468-10.6438-6.7173-22.2445-27.3121-22.2445-27.3121,0,0-11.5991,20.5956-22.2429,27.3136-10.6432,6.718-24.5409-1.6449-24.5409-1.6449,0,0,1.9,6.6635,5.6342,11.6454h-6.178c-.823-1.6458-1.8744-4.3619-2.5327-6.1447-1.5362-4.142-2.6331-8.3936-3.4013-11.8223h-1.6732v17.967h-4.6679v-17.9782h-7.2137v17.9782h-4.8845v-17.9782h-7.2137v17.9782h-4.8846v-17.9782h-7.2136v17.9782h-4.8846v-17.9782h-7.2137v17.9782h-4.8473v-17.9782h-7.288v17.9782h-4.8473v-17.9782h-7.2137v17.9782h-4.8846v-17.9782h-7.2136v17.9782h-4.8846v-17.9782h-7.2137v17.9782h-4.8845v-17.9782h-7.2137v17.9782h-4.6429v-17.967h-1.6732c-.7681,3.4288-1.8651,7.6804-3.4013,11.8223-.6583,1.7828-1.5034,4.4989-2.3264,6.1447h-6.1544c3.7343-4.9819,5.4278-11.6454,5.4278-11.6454,0,0-13.8973,8.3629-24.5407,1.6449-10.6434-6.718-22.2429-27.3136-22.2429-27.3136,0,0-11.6006,20.5948-22.2446,27.3121-10.6438,6.7172-24.5407-1.6468-24.5407-1.6468,0,0,5.358,16.9951,14.1679,16.9954Z" fill="#002554" stroke-width="0"/>
          <path d="m151.9629,184.1697l18.6835-9.0741h89.34l18.6836,9.0741c14.3522-2.2469,19.5161-18.7561,19.5161-18.7561-9.9056,10.4324-32.1054,6.9805-28.3571-3.372,3.2665-8.4833,1.6695-14.0156,1.6695-14.0156-4.347,7.9033-11.8512,10.3901-16.7553,10.5305-5.7444.1644-10.1551-3.3384-10.1551-3.3384v-9.8397l2.5679-1.8177v-9.0889h-8.0095v4.2678h-18.9024v-2.1179h-10.0347v2.1179h-18.8558v-4.2678h-7.8777v9.0889l2.569,1.8177v9.8397s-4.4107,3.5028-10.1558,3.3384c-4.904-.1404-12.4082-2.6272-16.7554-10.5305,0,0-1.5966,5.5322,1.6697,14.0156,3.7487,10.3525-18.4508,13.8044-28.357,3.372,0,0,5.1642,16.5092,19.5166,18.7561Z" fill="#002554" stroke-width="0"/>
          <g>
            <path d="m71.4037,234.6599v62.8279h64.8523v-62.8279h-64.8523Zm22.5722,22.8396h-10.1593v-10.1596h10.1593v10.1596Zm14.9337,0h-10.1596v-10.1596h10.1596v10.1596Zm14.9717,0h-10.1596v-10.1596h10.1596v10.1596Z" fill="#002554" stroke-width="0"/>
            <path d="m294.3764,234.6599v62.8279h64.8523v-62.8279h-64.8523Zm22.5342,22.8396h-10.1596v-10.1596h10.1596v10.1596Zm14.972,0h-10.1596v-10.1596h10.1596v10.1596Zm14.9715,0h-10.1591v-10.1596h10.1591v10.1596Z" fill="#002554" stroke-width="0"/>
          </g>
          <path d="m220.0714,234.4687v-3.2846l-9.5483.0382v3.2463h-65.6927l-.0765,44.3427h141.0479l.0765-44.3427h-65.8069Zm-26.8501,5.3472h17.3017v3.8576h-17.3017v-3.8576Zm-39.3391,34.7559h-3.7811v-27.4228h3.7811v27.4228Zm28.3776-.0762h-24.8639v-23.9473l5.118-3.361h14.9717l4.7742,3.361v23.9473Zm0-30.8221h-24.8639v-3.8576h24.8639v3.8576Zm7.1804,30.8983h-3.7811v-27.3846h3.7811v27.3846Zm0-30.8983h-3.7811v-3.8576h3.7811v3.8576Zm36.6658,30.8983h-1.6805v-17.0341h-17.8365v17.0341h-1.6805v-18.2945h21.1975v18.2945Zm11.8399,0h-10.1213v-20.2424h-24.8257v20.2424h-10.0449v-24.0618l5.0798-3.3228h34.3358l5.5763,3.3228v24.0618Zm0-30.8983l-17.8745-.0382v-3.8576l17.8745.0382v3.8576Zm7.2568,30.8221h-3.8958v-27.3084h3.8958v27.3084Zm0-30.8985h-3.8958v-3.8958h3.8958v3.8958Zm28.2247,30.8985h-24.8639v-24.1765l4.8889-3.1319h14.8573l5.1178,3.2846v24.0238Zm0-30.8221h-24.8639v-3.8576h24.8639v3.8576Zm7.2186,30.8983h-3.8576v-27.3846h3.8576v27.3846Z" fill="#002554" stroke-width="0"/>
        </g>
        <g>
          <path d="m49.0933,137.8552l-2.3266-.7896-3.1134,9.1719,2.3283.7907,1.6062-3.1145,14.5049,9.6339-17.6262-.5121.7598-3.7555-2.3362-.793-3.6705,10.8152,2.3384.7924.6152-1.276c.5329-1.1053,1.9388-1.4549,2.9273-.7278l12.2186,8.9864-17.2181-1.3006.6889-3.4274-2.3362-.7919-3.6773,10.8377,2.339.793.4962-1.0368c.5724-1.1959,1.8107-1.9273,3.1343-1.8513l24.1377,1.3855.7384-2.1735-16.9986-12.131,20.9967.3501.7491-2.2078-21.8646-14.3439.5887-3.3239Z" fill="#fff" stroke-width="0"/>
          <path d="m77.2837,118.0459l-11.5547-7.0788,1.3586-3.1196-2.1003-1.286-5.3207,8.6822,2.0998,1.2865,1.1052-1.3428c.8284-1.0065,2.2719-1.2487,3.3835-.5678l8.697,5.3278c2.944,1.8032,4.7241,3.5051,5.4422,5.2019.6641,1.5685.4463,3.1601-.6866,5.0083-1.4593,2.3817-3.9767,4.6003-10.5496.5735l-2.7284-1.6715c-2.3688-1.4509-5.4563-3.352-8.5241-5.3094l1.6647-3.6216-2.1071-1.2899-6.1874,10.0971,2.106,1.2899.5827-.7373c.8125-1.0279,2.2626-1.2957,3.3884-.6253,2.4645,1.4676,4.8164,2.9016,6.7085,4.0611l3.7375,2.29c2.5179,1.5421,4.8783,2.308,7.0186,2.3075,3.1246,0,5.7788-1.6327,7.7581-4.8625,1.546-2.5224,1.9619-5.0089,1.237-7.3895-.8014-2.6305-2.998-5.0612-6.529-7.224Z" fill="#fff" stroke-width="0"/>
          <path d="m105.7482,98.0566c-2.7279-2.4403-5.4113-4.9183-7.4632-6.8216l-1.465-1.3597c-2.0643-1.9152-4.7466-4.4157-7.3608-6.9319l2.1161-2.9096-1.8116-1.6799-8.0373,8.6642,1.8105,1.6794.9944-.8437c.9994-.8479,2.4749-.8235,3.4467.0559,1.9173,1.7352,3.7364,3.4137,5.2407,4.8083l-7.9528,8.5719c-2.7605-2.5641-4.8963-4.5772-6.8436-6.4519l2.111-2.9029-1.8111-1.6794-8.0373,8.6637,1.8105,1.6805,1.0011-.8493c.9992-.8477,2.4739-.8243,3.4454.055,2.1206,1.9194,4.1375,3.7833,5.7598,5.2882l1.465,1.3597c1.7243,1.6006,3.6858,3.4282,5.7005,5.344.9506.904,1.0876,2.3742.3161,3.4353l-.772,1.0617,1.8111,1.6805,8.0373-8.6642-1.8105-1.6799-2.7442,2.3294c-2.3542-2.1077-4.7641-4.3341-7.4165-6.7935l7.9534-8.573c2.0238,1.8786,3.8999,3.6252,5.6694,5.3032.9533.904,1.087,2.3712.3143,3.4338l-.7729,1.0629,1.8116,1.6794,8.0373-8.6637-1.8105-1.6805-2.7431,2.3277Z" fill="#fff" stroke-width="0"/>
          <path d="m128.326,78.0464l-19.9175-14.4514-2.4701,1.7931,7.496,23.4034c.3716,1.1603.0622,2.431-.8013,3.2904l-1.0048,1.0001,1.4436,1.9884,7.9022-5.736-1.4458-1.9917-3.2614,1.7193-1.8916-5.8367,6.7851-4.9245,4.992,3.6632-2.7076,2.5331,1.4475,1.994,9.254-6.717-1.4469-1.9929-.8816.4842c-1.1082.6087-2.4682.5233-3.4916-.2192Zm-9.5019-1.4593l-5.3437,3.8788-3.3171-10.2327,8.6608,6.354Z" fill="#fff" stroke-width="0"/>
          <path d="m149.9191,43.7148l-1.0462-2.2219-9.2636,4.3673,1.0513,2.2309,2.0211-.6513c1.0943-.3527,2.2803.1619,2.7704,1.2019l6.048,12.8339-20.2719-11.6639-6.0174,2.837,1.0519,2.2332.4777-.1195c1.5135-.3786,3.0835.3656,3.7485,1.7768l7.3888,15.6803c.4784,1.0152.1416,2.2275-.7919,2.8505l-1.1526.7692,1.0474,2.2242,9.2636-4.3673-1.0502-2.2292-3.9446,1.2472-7.6169-16.1635,22.4842,12.7923,1.8235-.8605-10.7876-22.8917,2.7667-1.8758Z" fill="#fff" stroke-width="0"/>
          <path d="m224.1376,32.2141l1.8142.2914c1.297.2083,2.2379,1.3469,2.1981,2.66l-.4217,13.8953-12.7777-19.592-6.65-.202-.0749,2.4667.4804.1104c1.5201.3493,2.5814,1.7244,2.5341,3.2834l-.5262,17.327c-.0341,1.1217-.8841,2.0495-1.9986,2.1814l-1.3766.1629-.0743,2.4572,10.2361.3112.0749-2.4634-4.0814-.6782.5425-17.8614,14.2376,21.6023,2.0154.0608.7688-25.2954,3.3165-.4165.0743-2.4549-10.2367-.3107-.0749,2.4645Z" fill="#fff" stroke-width="0"/>
          <path d="m242.9687,33.9971l2.0762.6461c.7802.2428,1.2625,1.0265,1.126,1.8321-.5167,3.0503-1.0522,5.9959-1.5217,8.5458l-.3619,1.9647c-.4578,2.4815-.9895,5.3287-1.5689,8.2477-.191.9622-1.0676,1.633-2.0466,1.5708l-1.8842-.1198-.448,2.429,11.6392,2.1487.4474-2.429-1.8044-.5613c-.9384-.2919-1.515-1.235-1.3502-2.2038.5157-3.0305,1.0462-5.9454,1.473-8.2612l.3619-1.963c.4724-2.5605,1.0234-5.5104,1.6244-8.5266.1598-.8018.8905-1.3617,1.7064-1.3097l2.1706.1383.448-2.429-11.6392-2.1493-.448,2.4296Z" fill="#fff" stroke-width="0"/>
          <path d="m287.2792,46.1742l.8003-2.3283-9.2749-3.1871-.8645,2.5157,2.9896,1.4042-11.1715,14.8713.1266-18.6983,3.4747.8566.8673-2.523-10.8479-3.7285-.8031,2.3362.9611.4643c1.1174.5399,1.8325,1.6662,1.8457,2.9072l.2655,24.9799,2.1758.748,14.7914-19.6617c.745-.9903,1.9888-1.4699,3.2058-1.2362l1.4581.28Z" fill="#fff" stroke-width="0"/>
          <path d="m297.0739,76.9671l-6.0217-3.3482c1.4993-2.8145,3.0734-5.6595,4.8096-8.783l3.0855,1.7154c.7174.3988,1.0274,1.2681.7244,2.0309l-.8901,2.2407,2.2624,1.2578,5.068-9.1145-2.2602-1.2567-1.4772,1.9724c-.4898.654-1.3874.8455-2.1015.4484l-3.069-1.7066c1.3023-2.3395,2.9552-5.2908,4.6459-8.2033l5.3343,2.9659c1.1168.6209,1.6209,1.9583,1.1919,3.162l-1.0142,2.8453,2.6665,1.4824,3.6565-7.2032-17.638-9.8056-1.201,2.1583,1.0655.7713c1.0616.7685,1.3903,2.2064.7676,3.3596-1.3583,2.5153-2.6882,4.9185-3.7641,6.8532l-.9714,1.7464c-1.0804,1.9428-2.423,4.3464-3.8352,6.8143-.6509,1.1374-2.0455,1.6167-3.2584,1.1205l-1.2177-.4981-1.1999,2.1589,18.3167,10.1838,4.1889-6.9072-2.666-1.4818-1.8836,2.3647c-.7961.9994-2.198,1.2768-3.3146.6559Z" fill="#fff" stroke-width="0"/>
          <path d="m334.4184,82.5668c1.4723-1.8218,1.9709-3.9024,1.4419-6.0168-.5183-2.0694-2.0317-4.1647-4.3769-6.0596l-8.7897-7.1013-1.5528,1.9208.9178.9427c.9162.941.9891,2.4156.1763,3.4472-1.7264,2.1912-3.4045,4.2762-4.8789,6.1005l-1.2562,1.5539c-1.3929,1.7234-3.1215,3.854-4.9324,6.039-.8434,1.0176-2.3118,1.2562-3.4312.5536l-1.1003-.6906-1.5528,1.9219,9.2051,7.4362,1.5528-1.9208-2.5241-2.5922c1.9411-2.4915,3.9564-4.9965,6.0213-7.5516l1.1504.9297c2.353,1.9011,2.9496,3.0678,1.6068,5.8339l-2.8883,6.0287c-.9387,1.9625-.4885,3.3863,1.6057,5.0781.8915.7204,1.7492,1.2291,2.6221,1.5556l.2921.1086,1.4762-1.8268-.9381-.966c-.7383-.7602-.9445-1.891-.5221-2.8628l1.6667-3.8348c1.0772-2.4915,1.2235-4.3971.4182-6.0979,3.3379,1.2972,6.5385.6101,8.5905-1.9293Zm-11.3651-2.5056l-2.0086-1.6231c2.2304-2.7588,4.2665-5.2678,6.3286-7.7232l2.2776,1.8398c1.4295,1.1549,2.2332,2.3367,2.3896,3.513.1508,1.1368-.2718,2.303-1.2922,3.5653-2.0632,2.5545-4.8693,2.7121-7.6951.4283Z" fill="#fff" stroke-width="0"/>
          <path d="m345.3084,100.0297l-.5583-1.5589c-1.0541-2.9192-.8166-4.7804.7941-6.2234.9618-.8605,2.0632-1.2235,3.1877-1.0485,1.0862.1688,2.16.8166,3.1061,1.8724.0097.0108.0193.0217.0289.0325,1.0177,1.1496.9946,2.8895.0462,4.0968l-1.6898,2.151,2.1195,2.366,4.5975-3.7606-.0163-.224c-.1784-2.4223-1.111-4.5907-2.7729-6.4462-1.7109-1.9113-3.8135-3.1376-5.92-3.4533-2.2365-.336-4.3577.3275-6.1328,1.918-2.886,2.5855-3.4347,6.0534-1.7278,10.9131l.5307,1.5218c1.2567,3.5422,1.1402,5.0702-.5003,6.5397-1.0355.9264-2.1893,1.2837-3.428,1.0749-1.2297-.2122-2.483-.9978-3.6238-2.2714-.3063-.342-.5672-.6702-.7905-.9997-.7926-1.1691-.6804-2.7312.2083-3.829l1.9183-2.37-2.1257-2.3744-4.9093,4.0493.036.242c.3698,2.4645,1.7357,5.2649,3.5659,7.3079,1.8578,2.075,4.0099,3.3537,6.2239,3.6981.3985.0619.7935.0929,1.1836.0929,1.8561,0,3.6053-.6967,5.1141-2.0486,2.9941-2.6812,3.4387-5.9459,1.5347-11.2683Z" fill="#fff" stroke-width="0"/>
          <path d="m356.467,119.7236l1.6434-1.1352c2.1383-1.4767,4.6094-3.1751,7.1743-4.8923.6789-.4545,1.5912-.3355,2.1323.2766l1.4417,1.6307,2.0328-1.4042-6.731-9.7358-2.0323,1.403,1.0148,1.9232c.3823.7245.1679,1.6194-.4994,2.0947-2.5982,1.8504-5.1192,3.5997-7.1102,4.975l-1.6445,1.1357c-1.9489,1.3463-4.3985,3.0309-6.9328,4.7305-.816.5473-1.912.4076-2.5629-.3285l-1.2514-1.4153-2.0328,1.4036,6.7305,9.7363,2.0328-1.4042-.8818-1.67c-.4591-.8694-.2016-1.945.5996-2.5149,2.5087-1.7845,4.9416-3.4724,6.877-4.8091Z" fill="#fff" stroke-width="0"/>
          <path d="m368.2333,140.2015l1.7841-.896c2.6873-1.3496,5.8486-2.9271,9.0582-4.4652l1.3101,2.6097c.5718,1.1389.2388,2.5241-.788,3.2788l-2.4688,1.8145,1.3687,2.7256,7.0906-3.9356-9.9294-19.7783-7.3929,3.3346,1.3698,2.7273,2.9282-.8962c1.2188-.373,2.5289.1875,3.1008,1.3265l1.3092,2.6076c-3.191,1.6771-6.3269,3.262-8.9912,4.5997l-1.7857.8965c-2.108,1.059-4.7571,2.3825-7.4965,3.7115-.8875.4305-1.9573.1301-2.4949-.6969l-1.2336-1.8975-2.2101,1.1098,5.6589,11.2722,2.2107-1.1098-1.385-3.742c3.1843-1.6726,6.3219-3.2586,8.9867-4.5969Z" fill="#fff" stroke-width="0"/>
          <path d="m393.0289,163.1185l-2.3564.7136.5054,3.2878-11.777-1.5663,9.0019-7.7328,1.4177,3.2259,2.3643-.7147-3.4291-11.3279-2.3649.7147.2474,1.3978c.1962,1.109-.1925,2.2408-1.0286,2.9952l-8.7601,7.9032c-1.0802.9745-2.3754,1.6992-3.769,2.1169-1.4982.449-2.8344.8443-4.0932,1.2076-.7933.2289-1.6321-.1665-1.9575-.9253l-1.0127-2.3617-2.3677.7159,3.6548,12.0714,2.3671-.7159-.7294-3.9424c2.4763-.7997,5.1794-1.6237,7.7514-2.4031l13.5294,1.9054c1.0721.151,1.9983.8266,2.4695,1.8014l.8095,1.6746,2.3514-.7108-2.8241-9.3306Z" fill="#fff" stroke-width="0"/>
          <path d="m197.8991,46.6824l-2.2109-13.3691,3.2478-1.0147-.4025-2.4297-10.0466,1.6601.4017,2.4296,1.7386-.0433c1.3032-.0325,2.4311.9003,2.6438,2.1865l1.6643,10.0625c.5636,3.406.442,5.8658-.3708,7.5193-.7512,1.5287-2.0971,2.4058-4.2359,2.7589-2.7559.4556-6.0809.0044-7.3385-7.6006l-.5221-3.1568c-.4535-2.7406-1.037-6.3192-1.5651-9.9197l3.8277-1.1118-.4039-2.4373-11.6836,1.9308.4032,2.4365.9388-.042c1.3089-.0585,2.4605.8626,2.6905,2.1525.5035,2.8238.9586,5.5406,1.3205,7.73l.7149,4.3246c.4822,2.913,1.448,5.1989,2.8493,6.8167,2.0451,2.3624,5.0167,3.3004,8.7542,2.6828,2.919-.4822,5.071-1.7951,6.3964-3.9013,1.4642-2.3276,1.8642-5.5793,1.1883-9.6645Z" fill="#fff" stroke-width="0"/>
        </g>
      </g>
    </g>
  </svg>